:SAMPLES-PER-SECOND 30
:FULLY-SPECIFIED
:DEGREES
150
root  0.83652 34.1011 1.09292 -55.3191 -76.4511 51.5729
RightUpLeg  -26.6079 -10.3585 -6.71396
RightLeg  67.5575 -10.081 -25.6446
RightFoot  -28.5897 0.908029 7.26313
RightToes  -1.16417e-010 0 -3.6325e-017
Spine  21.4185 -4.61562 -13.4368
Spine1  -14.5566 -7.31095 14.7702
HEad  -9.44528 13.5664 -14.984
LeftShoulder1  2.1269 15.0614 30.303
LeftArm  -71.3213 -49.8039 10.9702
LeftForeArm  40.6356 -33.646 -5.04394
LeftHand  -0.0442788 9.01677 -0.343779
RightShoulder  0.373392 -1.08942 8.03623
RightArm  15.8021 -51.3641 49.4976
RightForeArm  -146.619 69.03 159.172
RightHand  0.967467 -0.886267 24.5542
LeftUpLeg  -12.9143 6.20468 21.1526
LeftLeg  42.1321 4.87992 4.81546
LeftFoot  -0.153012 1.90497 -19.8073
LeftToes  6.91183e-011 3.39355e-011 2.1261e-011
151
root  0.809464 34.405 0.374974 -30.3416 -71.5867 25.4228
RightUpLeg  -23.9104 -16.1424 -3.89494
RightLeg  66.1424 -12.3455 -28.5545
RightFoot  -26.3087 0.893804 8.09521
RightToes  -1.16417e-010 0 -3.6325e-017
Spine  21.431 -3.7074 -13.3877
Spine1  -13.8835 -6.48956 13.5864
HEad  -4.69211 5.1678 -10.1574
LeftShoulder1  1.57352 13.0635 28.1718
LeftArm  -53.9815 -55.0693 -14.6911
LeftForeArm  51.2911 -56.8362 -13.8935
LeftHand  0.42266 10.519 10.3087
RightShoulder  0.340995 -1.28495 7.93794
RightArm  16.577 -48.1072 46.6222
RightForeArm  -137.921 61.919 165.727
RightHand  1.34165 -0.427809 30.8143
LeftUpLeg  -21.1625 13.279 16.948
LeftLeg  56.645 -0.950281 -1.33749
LeftFoot  -8.44595 0.681855 -24.7036
LeftToes  6.91183e-011 3.39355e-011 2.1261e-011
152
root  0.670296 34.8674 -0.179915 -16.4043 -66.6009 10.9097
RightUpLeg  -22.5864 -23.4379 -1.44746
RightLeg  64.6719 -11.0558 -24.4064
RightFoot  -22.7012 0.791642 9.5301
RightToes  -1.16417e-010 0 -3.6325e-017
Spine  20.8596 -2.40542 -11.5307
Spine1  -13.8207 -4.76543 11.8801
HEad  -1.53335 -3.35421 -6.65073
LeftShoulder1  0.783988 9.8637 23.4524
LeftArm  -22.243 -52.3198 -47.2922
LeftForeArm  73.0237 -76.7458 -39.5294
LeftHand  0.421522 10.4062 10.6947
RightShoulder  0.284757 -1.61968 7.64092
RightArm  16.3353 -44.2325 42.9183
RightForeArm  -136.991 55.7258 169.057
RightHand  0.974851 -1.42606 28.3959
LeftUpLeg  -25.9694 18.2213 12.379
LeftLeg  65.8355 -5.38135 -11.8608
LeftFoot  -10.5314 0.286807 -29.6103
LeftToes  6.91183e-011 3.39355e-011 2.1261e-011
153
root  0.546405 35.5438 -0.555269 -7.34543 -62.6542 1.41708
RightUpLeg  -21.4972 -29.6105 -1.386
RightLeg  63.5016 -3.73488 -8.59301
RightFoot  -15.7901 0.423411 15.5105
RightToes  -1.16417e-010 0 -3.6325e-017
Spine  20.1914 -0.729921 -8.48597
Spine1  -13.5891 -2.4672 9.01945
HEad  -1.23419 -11.1199 -3.76529
LeftShoulder1  0.113087 5.4111 15.8366
LeftArm  4.59624 -36.683 -68.4656
LeftForeArm  130.67 -81.6546 -96.9905
LeftHand  0.19192 10.5253 5.30283
RightShoulder  0.228828 -1.8698 6.43609
RightArm  14.2571 -37.8807 42.0574
RightForeArm  -137.666 52.7239 170.231
RightHand  0.420936 -2.91983 21.099
LeftUpLeg  -26.5735 18.7229 9.2389
LeftLeg  66.096 -6.07037 -14.095
LeftFoot  -9.21556 0.583806 -27.57
LeftToes  6.91183e-011 3.39355e-011 2.1261e-011
154
root  0.475295 36.1077 -0.770564 -0.812958 -60.2445 -5.72272
RightUpLeg  -19.6144 -31.0118 -4.80461
RightLeg  63.7597 4.69401 9.62062
RightFoot  -7.64814 -0.776705 23.6518
RightToes  -1.16417e-010 0 -3.6325e-017
Spine  19.9842 1.56274 -5.14408
Spine1  -12.854 0.43065 5.1126
HEad  -3.89839 -18.3534 0.31231
LeftShoulder1  0.0983878 1.25816 5.03455
LeftArm  15.401 -13.9265 -71.7856
LeftForeArm  137.286 -81.5335 -98.2058
LeftHand  -0.0124788 9.06864 1.0759
RightShoulder  0.238117 -1.66105 5.15945
RightArm  11.8964 -27.777 43.4323
RightForeArm  -138.677 52.8066 170.138
RightHand  0.149589 -3.84871 13.5273
LeftUpLeg  -24.6031 15.2965 9.08078
LeftLeg  61.3109 -4.62875 -8.5858
LeftFoot  -12.2603 -0.0559815 -19.771
LeftToes  6.91183e-011 3.39355e-011 2.1261e-011
155
root  0.388055 36.229 -1.0204 5.39786 -58.4439 -12.1953
RightUpLeg  -16.6267 -27.6668 -9.5663
RightLeg  61.8564 7.59399 14.6783
RightFoot  -7.62507 -0.941331 26.6441
RightToes  -1.16417e-010 0 -3.6325e-017
Spine  19.8643 4.19687 -1.40356
Spine1  -12.175 3.83932 0.31317
HEad  -8.67849 -26.1423 7.28811
LeftShoulder1  0.792856 -2.04577 -6.74992
LeftArm  16.2195 6.13287 -64.94
LeftForeArm  120.128 -81.5485 -79.073
LeftHand  -0.0159797 7.3479 1.41035
RightShoulder  0.299099 -1.17968 5.07064
RightArm  9.98655 -14.5048 44.8612
RightForeArm  -144.414 55.8201 168.558
RightHand  -0.0128036 -4.96455 5.46733
LeftUpLeg  -23.9458 10.8854 11.3079
LeftLeg  57.786 -1.44679 -1.86662
LeftFoot  -16.7925 -0.532445 -12.7987
LeftToes  6.91183e-011 3.39355e-011 2.1261e-011
156
root  0.229718 36.2251 -1.4202 10.4013 -55.209 -16.2853
RightUpLeg  -11.4885 -22.7542 -14.7119
RightLeg  53.1044 2.63874 3.9555
RightFoot  -9.48915 -0.406707 23.7126
RightToes  -1.16417e-010 0 -3.6325e-017
Spine  18.9659 6.72669 1.78335
Spine1  -11.4987 7.2136 -5.14054
HEad  -15.1812 -35.0602 16.9217
LeftShoulder1  1.61402 -4.42156 -13.5767
LeftArm  14.9721 20.0133 -58.7261
LeftForeArm  105.499 -80.8533 -65.5124
LeftHand  0.00709691 7.03844 3.18167
RightShoulder  0.314392 -1.03252 4.89274
RightArm  7.67299 -0.134783 46.4462
RightForeArm  -153.986 61.931 164.646
RightHand  -0.0116195 -6.16631 -2.69665
LeftUpLeg  -25.9703 8.34685 13.6281
LeftLeg  56.3307 0.090394 0.711147
LeftFoot  -18.8237 -0.579192 -10.476
LeftToes  6.91183e-011 3.39355e-011 2.1261e-011
157
root  -0.0274382 36.1266 -1.84916 13.0409 -49.6136 -17.1632
RightUpLeg  -3.7155 -18.691 -19.4639
RightLeg  39.4076 -6.54458 -6.22508
RightFoot  -1.50281 -1.50404 17.4181
RightToes  -1.16417e-010 0 -3.6325e-017
Spine  17.347 8.87899 4.31154
Spine1  -10.3884 10.1717 -10.4642
HEad  -22.982 -44.5396 27.1282
LeftShoulder1  1.93564 -5.74488 -14.0363
LeftArm  15.7471 27.9111 -56.656
LeftForeArm  101.089 -80.4781 -60.6517
LeftHand  -0.0234702 4.36512 2.21072
RightShoulder  0.245439 -1.21432 2.60621
RightArm  4.32395 12.8461 47.614
RightForeArm  -165.3 70.6776 155.536
RightHand  0.0580129 -7.03022 -6.44696
LeftUpLeg  -29.6479 7.24509 14.8213
LeftLeg  55.7749 -0.251325 0.14108
LeftFoot  -20.6436 -0.578725 -8.69127
LeftToes  6.91183e-011 3.39355e-011 2.1261e-011
158
root  -0.378492 35.8934 -2.16406 14.2464 -42.9441 -16.7918
RightUpLeg  6.61139 -14.9419 -22.4365
RightLeg  22.6954 -7.99167 -4.17003
RightFoot  10.5084 -3.65288 18.6411
RightToes  -1.16417e-010 0 -3.6325e-017
Spine  16.2876 10.5938 7.3847
Spine1  -9.56481 12.7764 -15.3424
HEad  -31.1484 -53.3276 36.1711
LeftShoulder1  1.97933 -6.30255 -13.1821
LeftArm  20.4859 31.0326 -54.1258
LeftForeArm  108.891 -81.0555 -68.9934
LeftHand  0.124926 -0.618324 -2.30308
RightShoulder  0.167593 -1.24169 -1.16235
RightArm  -0.0404604 23.2964 45.7496
RightForeArm  155.218 80.326 115.446
RightHand  0.0237082 -7.22673 -3.5881
LeftUpLeg  -33.2553 6.02966 15.7435
LeftLeg  55.6038 -0.908494 -0.899613
LeftFoot  -23.8558 -0.514751 -5.99929
LeftToes  6.91183e-011 3.39355e-011 2.1261e-011
159
root  -0.690702 35.4971 -2.48078 14.5617 -37.8853 -15.9499
RightUpLeg  15.1773 -11.4146 -22.9038
RightLeg  8.24041 -3.42505 -1.53748
RightFoot  18.9496 -7.64228 28.2684
RightToes  -1.16417e-010 0 -3.6325e-017
Spine  16.9364 11.9961 10.1966
Spine1  -9.80129 14.9819 -20.1659
HEad  -39.6602 -59.4773 44.0952
LeftShoulder1  2.18611 -6.80867 -14.291
LeftArm  25.7475 31.2781 -49.5433
LeftForeArm  119.34 -81.4424 -83.9763
LeftHand  0.541674 -3.29924 -7.15453
RightShoulder  0.0967712 -1.22832 -4.92164
RightArm  -3.09335 33.1705 41.0608
RightForeArm  67.0553 71.4536 27.832
RightHand  -0.0309866 -5.60458 -0.0822989
LeftUpLeg  -36.6731 4.81205 16.5098
LeftLeg  56.9024 -1.84756 -2.52468
LeftFoot  -26.7341 -0.503613 -4.87969
LeftToes  6.91183e-011 3.39355e-011 2.1261e-011
160
root  -0.748642 35.0926 -2.8226 14.4608 -35.6309 -14.9047
RightUpLeg  18.2655 -11.5864 -23.1871
RightLeg  2.5424 -0.692646 -2.09047
RightFoot  21.8707 -10.8041 35.848
RightToes  -1.16417e-010 0 -3.6325e-017
Spine  18.6528 12.6747 12.0789
Spine1  -10.2386 16.3818 -23.9113
HEad  -48.3201 -61.2713 51.0468
LeftShoulder1  2.47299 -7.2373 -16.3089
LeftArm  26.4568 30.3279 -46.6263
LeftForeArm  113.476 -81.1225 -86.2541
LeftHand  0.711891 -2.51881 -10.2686
RightShoulder  0.0238305 -1.57422 -8.43702
RightArm  0.170241 44.1488 37.1533
RightForeArm  43.0731 45.9801 7.75961
RightHand  -0.00690327 -3.31637 0.579934
LeftUpLeg  -39.6739 4.00165 16.3834
LeftLeg  59.168 -2.69111 -4.27844
LeftFoot  -27.6285 -0.635876 -5.60423
LeftToes  6.91183e-011 3.39355e-011 2.1261e-011
161
root  -0.532546 34.785 -3.01776 13.6475 -35.4706 -13.838
RightUpLeg  17.3025 -11.9055 -24.0673
RightLeg  5.09367 -2.91269 -2.3296
RightFoot  19.5944 -10.5412 37.3661
RightToes  -1.16417e-010 0 -3.6325e-017
Spine  20.0476 12.337 13.0003
Spine1  -9.46092 16.7685 -25.2312
HEad  -53.7707 -59.61 54.9634
LeftShoulder1  2.53237 -6.9546 -17.5978
LeftArm  22.938 28.5191 -47.2657
LeftForeArm  90.7405 -80.2706 -71.3335
LeftHand  0.762547 -1.13977 -13.514
RightShoulder  -0.0125125 -1.85262 -10.6993
RightArm  10.4402 52.6097 36.2946
RightForeArm  33.5171 27.0196 3.79166
RightHand  0.0646703 -2.79508 4.14822
LeftUpLeg  -40.9081 2.98822 15.241
LeftLeg  60.7421 -2.07103 -3.38387
LeftFoot  -27.6613 -0.643413 -5.64786
LeftToes  6.91183e-011 3.39355e-011 2.1261e-011
162
root  -0.196432 34.536 -3.01227 12.1925 -36.1553 -13.1648
RightUpLeg  15.741 -10.1053 -24.1429
RightLeg  9.85195 -8.37644 -3.61527
RightFoot  16.1365 -8.4404 34.0608
RightToes  -1.16417e-010 0 -3.6325e-017
Spine  20.7626 11.2708 12.8138
Spine1  -7.96289 16.0869 -24.1268
HEad  -52.6763 -57.4895 53.7531
LeftShoulder1  2.4356 -6.33579 -18.1734
LeftArm  20.0055 26.1184 -49.2113
LeftForeArm  72.0716 -78.6849 -54.9578
LeftHand  0.901697 -0.567994 -17.3662
RightShoulder  -0.00674061 -1.61509 -10.3191
RightArm  14.3545 53.4933 37.8064
RightForeArm  36.1924 24.9797 3.42314
RightHand  0.150563 -3.32832 9.67104
LeftUpLeg  -40.4133 1.0762 14.0288
LeftLeg  61.5738 0.0896916 0.815494
LeftFoot  -27.9749 -0.42146 -4.03175
LeftToes  6.91183e-011 3.39355e-011 2.1261e-011
163
root  0.216759 34.4069 -2.78042 11.3713 -37.2218 -13.5901
RightUpLeg  12.7029 -6.15361 -22.3305
RightLeg  16.48 -17.8305 -6.78423
RightFoot  16.1224 -5.90813 24.4386
RightToes  -1.16417e-010 0 -3.6325e-017
Spine  21.0803 9.72297 12.2787
Spine1  -7.57374 14.263 -21.4578
HEad  -45.5311 -56.0487 47.241
LeftShoulder1  2.44715 -6.33985 -18.295
LeftArm  20.8767 23.8793 -50.0109
LeftForeArm  71.7208 -78.1237 -49.2584
LeftHand  1.09883 -1.55618 -18.2393
RightShoulder  0.0414632 -1.29066 -7.61569
RightArm  8.45307 46.2738 40.407
RightForeArm  49.6056 39.2393 6.27677
RightHand  0.0531444 -4.48433 9.12483
LeftUpLeg  -39.4848 -1.11099 13.4527
LeftLeg  62.3385 1.95055 4.69483
LeftFoot  -27.6643 -0.215082 -2.65779
LeftToes  6.91183e-011 3.39355e-011 2.1261e-011
164
root  0.694089 34.4187 -2.42557 11.0453 -39.7001 -14.1477
RightUpLeg  5.93692 -7.42472 -21.1167
RightLeg  27.8507 -22.4427 -12.4457
RightFoot  15.5122 -2.88968 12.2753
RightToes  -1.16417e-010 0 -3.6325e-017
Spine  21.3967 8.11667 10.983
Spine1  -8.23223 11.8762 -18.106
HEad  -35.6318 -53.3668 37.159
LeftShoulder1  2.48724 -6.81041 -17.4984
LeftArm  24.5361 21.7494 -49.3126
LeftForeArm  92.1991 -80.0035 -60.4163
LeftHand  0.933551 -3.00462 -12.7734
RightShoulder  0.109388 -1.19858 -4.28624
RightArm  9.65918 34.6627 42.4612
RightForeArm  60.133 61.2774 15.6067
RightHand  -0.062109 -5.46015 0.638856
LeftUpLeg  -38.2294 -2.09688 12.5002
LeftLeg  62.7211 2.71924 6.39286
LeftFoot  -26.2408 -0.244086 -3.08855
LeftToes  6.91183e-011 3.39355e-011 2.1261e-011
